<?xml version="1.0" encoding="iso-8859-1"?>
<!DOCTYPE svg PUBLIC "-//W3C//DTD SVG 1.1//EN" "http://www.w3.org/Graphics/SVG/1.1/DTD/svg11.dtd">
<svg 
 version="1.1" xmlns="http://www.w3.org/2000/svg" xmlns:xlink="http://www.w3.org/1999/xlink" x="0px" y="0px" width="47px" 
 	  height="168px" viewBox="0 0 47 168" style="enable-background:new 0 0 47 168;"      xml:space="preserve"
><path style="display: inline; fill-rule: evenodd; clip-rule: evenodd;" d="M 19.8,25.8 C 19.8,11.2 15.6,2.2 0,0.4 L 0.4,0 C 23,0.4 29.2,7.2 29.2,29 L 29.2,59.2 C 29.2,72.6 30.6,79 45.2,82.6 L 45.2,83 C 30.8,86.6 29.2,93 29.2,106.2 L 29.2,138.4 C 29.2,159.4 21.4,165.4 0.4,166 L 0,165.601 C 16,163.201 19.8,155.201 19.8,140 L 19.8,107.8 C 19.8,94.2 21.6,86.4 36.6,83 L 36.6,82.6 C 21.4,79 19.8,70.6 19.8,57 L 19.8,25.8 z "></path></svg>
