<?xml version="1.0" encoding="iso-8859-1"?>
<!DOCTYPE svg PUBLIC "-//W3C//DTD SVG 1.1//EN" "http://www.w3.org/Graphics/SVG/1.1/DTD/svg11.dtd">
<svg 
 version="1.1" xmlns="http://www.w3.org/2000/svg" xmlns:xlink="http://www.w3.org/1999/xlink" x="0px" y="0px" width="512px"
	 height="512px" viewBox="0 0 512 512" style="enable-background:new 0 0 512 512;" xml:space="preserve"
><path style="display: inline; fill-rule: evenodd; clip-rule: evenodd;" d="M355.825,266.135c0,0-3.428,11.315-16.319,12.244
		c-14.688,1.054-19.015-9.03-19.015-9.03l-15.315-111.196l-0.743,334.814c0,0-1.528,18.033-21.991,18.033
		c-21.781,0-21-18.033-21-18.033V313.576H256h-5.438v179.391c0,0,0.784,18.033-21,18.033c-20.467,0-21.992-18.033-21.992-18.033
		l-0.744-334.814l-15.318,111.196c0,0-4.326,10.084-19.014,9.03c-12.892-0.929-16.32-12.244-16.32-12.244l17.545-157.644
		c0,0,0.558-7.723,11.188-16.471c10.514-8.652,19.448-8.487,19.448-8.487H256h51.644c0,0,8.931-0.166,19.448,8.487
		c10.638,8.749,11.192,16.471,11.192,16.471L355.825,266.135z M255.998,0c-20.512,0-37.134,16.629-37.134,37.134
		c0,20.512,16.622,37.138,37.134,37.138c20.508,0,37.138-16.626,37.138-37.138C293.136,16.629,276.506,0,255.998,0z"></path></svg>