<svg version="1.1" xmlns="http://www.w3.org/2000/svg" xmlns:xlink="http://www.w3.org/1999/xlink" width="212" height="520" style="enable-background:new 0 0 512 512;" xml:space="preserve"><rect id="backgroundrect" width="100%" height="100%" x="0" y="0" fill="none" stroke="none" style="" class="selected"/><g class="currentLayer" style=""><title>Layer 1</title><path style="display: inline; fill-rule: evenodd; clip-rule: evenodd;" d="M355.82501220703125,266.135009765625 c0,0 -3.427999973297119,11.3149995803833 -16.319000244140625,12.244000434875488 c-14.687999725341797,1.0540000200271606 -19.014999389648438,-9.029999732971191 -19.014999389648438,-9.029999732971191 l-15.3149995803833,-111.19599914550781 l-0.7429999709129333,334.8139953613281 c0,0 -1.527999997138977,18.033000946044922 -21.990999221801758,18.033000946044922 c-21.7810001373291,0 -21,-18.033000946044922 -21,-18.033000946044922 V313.57598876953125 H256 h-5.438000202178955 v179.39100646972656 c0,0 0.7839999794960022,18.033000946044922 -21,18.033000946044922 c-20.466999053955078,0 -21.992000579833984,-18.033000946044922 -21.992000579833984,-18.033000946044922 l-0.7440000176429749,-334.8139953613281 l-15.317999839782715,111.19599914550781 c0,0 -4.326000213623047,10.083999633789062 -19.013999938964844,9.029999732971191 c-12.892000198364258,-0.9290000200271606 -16.31999969482422,-12.244000434875488 -16.31999969482422,-12.244000434875488 l17.545000076293945,-157.6439971923828 c0,0 0.5580000281333923,-7.7230000495910645 11.187999725341797,-16.47100067138672 c10.513999938964844,-8.652000427246094 19.447999954223633,-8.487000465393066 19.447999954223633,-8.487000465393066 H256 h51.64400100708008 c0,0 8.930999755859375,-0.16599999368190765 19.447999954223633,8.487000465393066 c10.637999534606934,8.74899959564209 11.192000389099121,16.47100067138672 11.192000389099121,16.47100067138672 L355.82501220703125,266.135009765625 zM255.9980010986328,0 c-20.511999130249023,0 -37.13399887084961,16.628999710083008 -37.13399887084961,37.13399887084961 c0,20.511999130249023 16.621999740600586,37.13800048828125 37.13399887084961,37.13800048828125 c20.507999420166016,0 37.13800048828125,-16.625999450683594 37.13800048828125,-37.13800048828125 C293.135986328125,16.628999710083008 276.5060119628906,0 255.9980010986328,0 z" id="svg_1" class="" transform="translate(-150, 5)"/></g></svg>